<svg xmlns:xlink="http://www.w3.org/1999/xlink" xmlns="http://www.w3.org/2000/svg" viewBox="0 0 320 58.84118395921305" height="58.84118395921305" width="320" style="width: 320px; height: 58.8412px; position: absolute; top: 50%; left: 50%; transform: translate(-50%, -50%) scale(0.57); z-index: 0; cursor: pointer;"><defs id="SvgjsDefs1386"></defs><g id="SvgjsG1387" featurekey="PG4fjM-0" transform="matrix(1.0000199894132404,0,0,1.0000199894132404,0,-4.768466898981287e-7)" fill="#47ABFF"><path xmlns="http://www.w3.org/2000/svg" fill-rule="evenodd" clip-rule="evenodd" d="M82.369,23.536c-2.241,0-4.523,0.448-6.616,1.27  c-0.032,0.037-0.032,0.037-0.032,0.037c-2.02-3.771-4.036-7.546-6.053-11.317c0.56-1.384,1.121-2.73,1.644-4.075  c2.58,0,4.673-2.128,4.673-4.705c0-0.038,0-0.038,0-0.038c-5.493,0-10.985,0-16.476,0c-0.603,0-1.157,0.562-1.157,1.199  c0,0.521,0.332,0.97,0.856,1.12c2.427,0.634,4.86,1.27,7.284,1.864c-0.674,1.568-1.31,3.102-1.939,4.635  c-10.722,0-21.446,0-32.132,0c0,0,0.6-1.98,0.711-2.395c0.186-0.709,0.299-0.969,0.299-1.718c0-1.679-1.044-2.725-2.5-3.547  c-0.038-0.036-0.076-0.075-0.076-0.075c-0.154-0.108-0.264-0.302-0.264-0.485c0-0.299,0.302-0.599,0.6-0.599c0.41,0,0.787,0,1.156,0  c1.984,0,3.961,0,5.904,0c0-1.566,0-3.136,0-4.707c-2.169,0-4.335,0-6.461,0c-0.599,0-1.199,0-1.796,0  c-2.575,0.04-4.668,2.169-4.668,4.745c0,1.906,1.158,3.622,2.916,4.37c0.035,0,0.072,0,0.072,0c0.223,0.113,0.337,0.298,0.337,0.562  c0,0.035,0,0.073,0,0.111c0,0.037,0,0.037,0,0.037c-1.495,5.006-2.986,10.011-4.484,14.979c-0.035-0.037-0.072-0.072-0.11-0.072  c-2.576-1.012-3.622-1.197-6.39-1.197C7.917,23.536,0,31.454,0,41.206C0,50.92,7.917,58.84,17.665,58.84  c9.715,0,17.637-7.92,17.637-17.634c0-5.565-2.466-10.574-6.839-13.973c-0.037-0.075-0.074-0.112-0.074-0.15  c0.222-0.632,0.411-1.268,0.599-1.867c6.722,4.632,13.445,9.229,20.131,13.824c0,0.035,0,0.074,0,0.074  c-0.188,0.706-0.296,1.379-0.296,2.092c0,3.884,3.173,7.062,7.06,7.062c1.08,0,1.305-0.076,2.316-0.413  c0.484,0.932,0.966,1.867,1.459,2.762c-0.784,0-1.54,0-2.279,0c0,0.786,0,1.571,0,2.356c0.82,0,1.636,0,2.459,0  c0.375,0.373,0.827,0.56,1.347,0.56c0.486,0,0.97-0.224,1.309-0.596c0.674,0,1.311,0,1.947,0c0-0.791,0-1.575,0-2.32  c-0.979,0-1.91,0-2.846,0c-0.598-1.194-1.194-2.388-1.757-3.586c1.463-0.966,2.429-2.351,2.883-4.071c0.038,0,0.038,0,0.038,0  c0.704,0,1.376,0,2.049,0c0.897,9.039,8.479,15.88,17.559,15.88c9.709,0,17.631-7.92,17.631-17.634  C100,31.454,92.078,23.536,82.369,23.536z M29.977,41.206c0,6.798-5.527,12.327-12.328,12.327c-6.832,0-12.364-5.529-12.364-12.327  c0-6.839,5.532-12.369,12.364-12.369c1.755,0,3.439,0.375,4.972,1.049c0.034,0.039,0.075,0.039,0.075,0.039  c-0.487,1.566-0.972,3.14-1.458,4.707c-0.673,2.017-2.353,3.55-4.371,4.933c-0.113,0.073-0.184,0.146-0.26,0.183  c-0.447,0.337-0.75,0.86-0.75,1.459c0,0.934,0.826,1.754,1.792,1.754c0.079,0,0.26,0,0.338-0.031  c3.364-0.939,6.76-3.706,7.805-6.994c0.339-1.04,0.638-2.087,0.938-3.097c0.034,0.036,0.034,0.036,0.034,0.036  C28.784,35.077,29.977,37.994,29.977,41.206z M74.506,31.646c0.039-0.039,0.039-0.078,0.039-0.078  c1.423,2.653,2.799,5.266,4.183,7.879c-2.876,0-5.75,0-8.592,0c0-0.033,0-0.074,0-0.074C70.583,36.236,72.045,33.661,74.506,31.646z   M30.204,21.036c0.335-1.122,0.672-2.245,0.97-3.365c10.606,0,21.183,0,31.75,0c-2.235,5.492-4.478,10.982-6.682,16.473  c-0.042,0-0.079,0-0.079,0c-0.11,0-0.221,0-0.296,0c-0.713,0-1.498,0.114-2.17,0.342c-0.074,0.034-0.11,0.034-0.151,0.034  c-0.48-0.934-0.929-1.835-1.379-2.729c0.747,0,1.497,0,2.203,0c0-0.783,0-1.567,0-2.356c-0.824,0-1.639,0-2.465,0  c-0.032-0.037-0.032-0.037-0.032-0.037c-0.342-0.367-0.827-0.561-1.309-0.561c-0.491,0-0.935,0.193-1.273,0.561  c-0.035,0.037-0.035,0.037-0.035,0.037c-0.673,0-1.312,0-1.943,0c0,0.789,0,1.573,0,2.356c0.971,0,1.943,0,2.878,0  c0.596,1.197,1.193,2.393,1.757,3.549c-0.189,0.111-0.337,0.221-0.49,0.332C44.364,30.78,37.264,25.889,30.204,21.036z   M55.868,45.916c-2.581,0-4.708-2.137-4.708-4.71c0-2.615,2.126-4.708,4.708-4.708c2.579,0,4.702,2.093,4.702,4.708  C60.57,43.779,58.447,45.916,55.868,45.916z M64.793,39.373c0,0,0,0,0,0.041c-0.673,0-1.383,0-2.087,0  c-0.374-1.388-1.011-2.434-2.057-3.441c0,0-0.039-0.038-0.08-0.069c2.319-5.791,4.67-11.619,7.026-17.447  c1.457,2.799,2.951,5.601,4.45,8.405c0,0-0.043,0-0.083,0.036C67.822,29.925,65.32,34.294,64.793,39.373z M82.352,53.533  c-6.124,0-11.319-4.445-12.216-10.497c0-0.038,0-0.076,0-0.076c4.071,0,8.146,0,12.216,0c0.937,0,1.756-0.82,1.756-1.754  c0-0.263-0.04-0.522-0.111-0.746c-1.945-3.661-3.887-7.285-5.794-10.91c1.273-0.448,2.765-0.713,4.149-0.713  c6.798,0,12.363,5.53,12.363,12.369C94.715,48.004,89.15,53.533,82.352,53.533z" fill="#47ABFF"></path></g><g id="SvgjsG1388" featurekey="jxYttZ-0" transform="matrix(2.6975991589760433,0,0,2.6975991589760433,115.68384095974368,-4.0024284093381155)" fill="#FFFFFF"><path d="M12.72 10.32 c0 2.28 -1.32 4.12 -3.22 4.92 l3.22 4.76 l-2.46 0 l-2.94 -4.36 l-3.5 0 l0 4.36 l-2.22 0 l0 -4.36 l0 -1.84 l0 -6.96 l0 -1.84 l2.22 0 l3.6 0 c2.94 0.02 5.3 2.3 5.3 5.32 z M3.82 6.84 l0 6.96 l3.58 0 c1.7 0 3.1 -1.44 3.1 -3.48 c0 -2.02 -1.4 -3.48 -3.1 -3.48 l-3.58 0 z M17.48 10.12 l0 9.88 l-2.06 0 l0 -9.88 l2.06 0 z M17.58 6.5 c0 0.64 -0.5 1.14 -1.14 1.14 c-0.62 0 -1.12 -0.5 -1.12 -1.14 c0 -0.62 0.5 -1.12 1.12 -1.12 c0.64 0 1.14 0.5 1.14 1.12 z M19.98 15.08 c0 -2.94 2.1 -5.14 4.94 -5.14 c0.98 0 2.18 0.42 2.84 0.96 l0 -5.9 l2.08 0 l0 15 l-2.08 0 l0 -0.74 c-0.78 0.58 -1.86 0.94 -2.84 0.94 c-2.84 0 -4.94 -2.18 -4.94 -5.12 z M22.06 15.08 c0 2 1.38 3.44 3.06 3.44 c1.12 0 2.12 -0.52 2.64 -1.58 c0.28 -0.54 0.44 -1.18 0.44 -1.86 s-0.16 -1.32 -0.44 -1.88 c-0.52 -1.06 -1.52 -1.56 -2.64 -1.56 c-1.68 0 -3.06 1.42 -3.06 3.44 z M41.959999999999994 15.08 l0 0.74 l-7.78 0 c0 1.82 1.74 2.7 3.02 2.7 c0.94 0 1.98 -0.5 2.54 -1.3 l1.42 1.28 c-0.66 0.9 -1.74 1.7 -3.96 1.7 c-3.2 0 -5.16 -2.18 -5.16 -5.12 s1.9 -5.14 4.96 -5.14 s4.46 1.7 4.88 4.18 c0.06 0.32 0.08 0.64 0.08 0.96 z M34.22 14.120000000000001 l5.58 0 c0 -1.6 -1.28 -2.48 -2.8 -2.48 s-2.78 1.02 -2.78 2.48 z M56.98 6.66 c-3.16 0 -5.4 2.8 -5.4 5.84 c0 3.06 2.24 5.86 5.4 5.86 c3.18 0 5.4 -2.8 5.4 -5.86 c0 -3.04 -2.24 -5.84 -5.4 -5.84 z M56.98 4.82 c4.2 0 7.62 3.32 7.62 7.68 s-3.42 7.7 -7.62 7.7 s-7.62 -3.34 -7.62 -7.7 s3.42 -7.68 7.62 -7.68 z M75.74000000000001 14.3 l0 5.7 l-2.06 0 l0 -5.5 c0 -2 -0.62 -2.88 -2.32 -2.88 c-1.92 0 -2.7 1.34 -2.7 3.08 l0 5.3 l-2.06 0 l0 -9.88 l2.06 0 l0 1.6 c0.28 -0.88 1.52 -1.68 2.7 -1.76 c2.68 -0.2 4.38 1.1 4.38 4.34 z" fill="#FFFFFF"></path></g></svg>